<svg width="23" height="32" viewBox="0 0 23 32" fill="none" xmlns="http://www.w3.org/2000/svg">
<path d="M11.5 0C5.15128 0 0 4.60786 0 10.2857C0 19.4286 11.5 32 11.5 32C11.5 32 23 19.4286 23 10.2857C23 4.60786 17.8487 0 11.5 0ZM11.5 16C10.5902 16 9.70084 15.7319 8.94438 15.2296C8.18791 14.7273 7.59832 14.0133 7.25015 13.178C6.90199 12.3427 6.8109 11.4235 6.98839 10.5367C7.16588 9.64996 7.60399 8.83541 8.24731 8.19608C8.89063 7.55676 9.71027 7.12137 10.6026 6.94498C11.4949 6.76859 12.4198 6.85912 13.2603 7.20512C14.1009 7.55112 14.8193 8.13705 15.3248 8.88882C15.8302 9.64059 16.1 10.5244 16.1 11.4286C16.0987 12.6406 15.6136 13.8026 14.7512 14.6596C13.8888 15.5166 12.7196 15.9987 11.5 16Z" fill="white"/>
</svg>
