<svg width="32" height="32" viewBox="0 0 32 32" fill="none" xmlns="http://www.w3.org/2000/svg">
<path d="M20.8352 19.9629L20.1527 20.7091C20.1527 20.7091 18.5282 22.4813 14.0957 17.6422C9.66323 12.8031 11.2877 11.0309 11.2877 11.0309L11.7167 10.5598C12.7772 9.40356 12.8777 7.54566 11.9522 6.18847L10.0622 3.41645C8.91624 1.73643 6.70375 1.51408 5.39126 2.94703L3.03628 5.51647C2.38678 6.228 1.95178 7.14707 2.00428 8.16825C2.13928 10.7822 3.21628 16.4036 9.22224 22.9623C15.5927 29.9162 21.5702 30.1929 24.0136 29.9425C24.7876 29.8635 25.4596 29.432 26.0011 28.839L28.1311 26.5133C29.5711 24.9437 29.1661 22.2507 27.3241 21.1521L24.4591 19.4408C23.2501 18.7194 21.7802 18.9319 20.8352 19.9629Z" fill="white"/>
</svg>
