<svg width="32" height="28" viewBox="0 0 32 28" fill="none" xmlns="http://www.w3.org/2000/svg">
<path fill-rule="evenodd" clip-rule="evenodd" d="M27.4542 0.478301C27.8208 0.313983 28.222 0.257311 28.6161 0.314182C29.0102 0.371054 29.3828 0.53939 29.6951 0.80167C30.0074 1.06395 30.248 1.41059 30.3918 1.8055C30.5356 2.20041 30.5774 2.62916 30.5129 3.04712L27.1486 24.781C26.8223 26.8774 24.6625 28.0797 22.8573 27.0354C21.3472 26.1618 19.1044 24.8157 17.0871 23.4112C16.0784 22.7082 12.9886 20.457 13.3683 18.855C13.6946 17.4853 18.8864 12.3382 21.8531 9.27801C23.0175 8.07575 22.4865 7.3822 21.1114 8.48809C17.6952 11.2338 12.2142 15.4094 10.4016 16.5848C8.80254 17.6211 7.96889 17.7981 6.97208 17.6211C5.15349 17.2989 3.46692 16.7996 2.09037 16.1914C0.230249 15.3699 0.320733 12.6462 2.08889 11.8531L27.4542 0.478301Z" fill="white"/>
</svg>
