<svg width="1440" height="604" viewBox="0 0 1440 604" fill="none" xmlns="http://www.w3.org/2000/svg">
<line x1="-258.079" y1="145.63" x2="311.362" y2="100.289" stroke="white" stroke-opacity="0.03" stroke-width="2"/>
<line x1="396.778" y1="93.4878" x2="510.666" y2="84.4197" stroke="white" stroke-opacity="0.03" stroke-width="2"/>
<line x1="596.082" y1="77.6186" x2="709.97" y2="68.5504" stroke="white" stroke-opacity="0.03" stroke-width="2"/>
<line x1="795.386" y1="61.7493" x2="909.274" y2="52.6812" stroke="white" stroke-opacity="0.03" stroke-width="2"/>
<line x1="994.691" y1="45.88" x2="1108.58" y2="36.8119" stroke="white" stroke-opacity="0.03" stroke-width="2"/>
<line x1="1194" y1="30.0107" x2="1307.88" y2="20.9426" stroke="white" stroke-opacity="0.03" stroke-width="2"/>
<line x1="-237.284" y1="174.636" x2="332.157" y2="129.296" stroke="white" stroke-opacity="0.03" stroke-width="2"/>
<line x1="417.573" y1="122.494" x2="531.461" y2="113.426" stroke="white" stroke-opacity="0.03" stroke-width="2"/>
<line x1="616.878" y1="106.625" x2="730.766" y2="97.5569" stroke="white" stroke-opacity="0.03" stroke-width="2"/>
<line x1="816.182" y1="90.7558" x2="930.07" y2="81.6876" stroke="white" stroke-opacity="0.03" stroke-width="2"/>
<line x1="1015.49" y1="74.8865" x2="1129.37" y2="65.8184" stroke="white" stroke-opacity="0.03" stroke-width="2"/>
<line x1="1214.79" y1="59.0173" x2="1328.68" y2="49.9492" stroke="white" stroke-opacity="0.03" stroke-width="2"/>
<line x1="-216.489" y1="203.643" x2="352.952" y2="158.302" stroke="white" stroke-opacity="0.03" stroke-width="2"/>
<line x1="438.369" y1="151.501" x2="552.257" y2="142.433" stroke="white" stroke-opacity="0.03" stroke-width="2"/>
<line x1="637.673" y1="135.632" x2="751.561" y2="126.563" stroke="white" stroke-opacity="0.03" stroke-width="2"/>
<line x1="836.977" y1="119.762" x2="950.865" y2="110.694" stroke="white" stroke-opacity="0.03" stroke-width="2"/>
<line x1="1036.28" y1="103.893" x2="1150.17" y2="94.8249" stroke="white" stroke-opacity="0.03" stroke-width="2"/>
<line x1="1235.59" y1="88.0237" x2="1349.47" y2="78.9556" stroke="white" stroke-opacity="0.03" stroke-width="2"/>
<line x1="-195.693" y1="232.649" x2="373.748" y2="187.308" stroke="white" stroke-opacity="0.03" stroke-width="2"/>
<line x1="459.164" y1="180.507" x2="573.052" y2="171.439" stroke="white" stroke-opacity="0.03" stroke-width="2"/>
<line x1="658.468" y1="164.638" x2="772.357" y2="155.57" stroke="white" stroke-opacity="0.03" stroke-width="2"/>
<line x1="857.773" y1="148.769" x2="971.661" y2="139.701" stroke="white" stroke-opacity="0.03" stroke-width="2"/>
<line x1="1057.08" y1="132.9" x2="1170.96" y2="123.831" stroke="white" stroke-opacity="0.03" stroke-width="2"/>
<line x1="1256.38" y1="117.03" x2="1370.27" y2="107.962" stroke="white" stroke-opacity="0.03" stroke-width="2"/>
<line x1="-174.898" y1="261.656" x2="394.543" y2="216.315" stroke="white" stroke-opacity="0.03" stroke-width="2"/>
<line x1="479.96" y1="209.514" x2="593.848" y2="200.446" stroke="white" stroke-opacity="0.03" stroke-width="2"/>
<line x1="679.264" y1="193.645" x2="793.152" y2="184.576" stroke="white" stroke-opacity="0.03" stroke-width="2"/>
<line x1="878.568" y1="177.775" x2="992.456" y2="168.707" stroke="white" stroke-opacity="0.03" stroke-width="2"/>
<line x1="1077.87" y1="161.906" x2="1191.76" y2="152.838" stroke="white" stroke-opacity="0.03" stroke-width="2"/>
<line x1="1277.18" y1="146.037" x2="1391.06" y2="136.969" stroke="white" stroke-opacity="0.03" stroke-width="2"/>
<line x1="-154.102" y1="290.662" x2="415.339" y2="245.321" stroke="white" stroke-opacity="0.03" stroke-width="2"/>
<line x1="500.755" y1="238.52" x2="614.643" y2="229.452" stroke="white" stroke-opacity="0.03" stroke-width="2"/>
<line x1="700.059" y1="222.651" x2="813.947" y2="213.583" stroke="white" stroke-opacity="0.03" stroke-width="2"/>
<line x1="899.364" y1="206.782" x2="1013.25" y2="197.714" stroke="white" stroke-opacity="0.03" stroke-width="2"/>
<line x1="1098.67" y1="190.912" x2="1212.56" y2="181.844" stroke="white" stroke-opacity="0.03" stroke-width="2"/>
<line x1="1297.97" y1="175.043" x2="1411.86" y2="165.975" stroke="white" stroke-opacity="0.03" stroke-width="2"/>
<line x1="-133.307" y1="319.669" x2="436.134" y2="274.328" stroke="white" stroke-opacity="0.03" stroke-width="2"/>
<line x1="521.551" y1="267.527" x2="635.439" y2="258.459" stroke="white" stroke-opacity="0.03" stroke-width="2"/>
<line x1="720.855" y1="251.657" x2="834.743" y2="242.589" stroke="white" stroke-opacity="0.03" stroke-width="2"/>
<line x1="920.159" y1="235.788" x2="1034.05" y2="226.72" stroke="white" stroke-opacity="0.03" stroke-width="2"/>
<line x1="1119.46" y1="219.919" x2="1233.35" y2="210.851" stroke="white" stroke-opacity="0.03" stroke-width="2"/>
<line x1="1318.77" y1="204.05" x2="1432.66" y2="194.982" stroke="white" stroke-opacity="0.03" stroke-width="2"/>
<line x1="-112.511" y1="348.675" x2="456.93" y2="303.334" stroke="white" stroke-opacity="0.03" stroke-width="2"/>
<line x1="542.346" y1="296.533" x2="656.234" y2="287.465" stroke="white" stroke-opacity="0.03" stroke-width="2"/>
<line x1="741.65" y1="280.664" x2="855.538" y2="271.596" stroke="white" stroke-opacity="0.03" stroke-width="2"/>
<line x1="940.955" y1="264.795" x2="1054.84" y2="255.727" stroke="white" stroke-opacity="0.03" stroke-width="2"/>
<line x1="1140.26" y1="248.925" x2="1254.15" y2="239.857" stroke="white" stroke-opacity="0.03" stroke-width="2"/>
<line x1="1339.56" y1="233.056" x2="1453.45" y2="223.988" stroke="white" stroke-opacity="0.03" stroke-width="2"/>
<line x1="-91.716" y1="377.682" x2="477.725" y2="332.341" stroke="white" stroke-opacity="0.03" stroke-width="2"/>
<line x1="563.141" y1="325.54" x2="677.029" y2="316.472" stroke="white" stroke-opacity="0.03" stroke-width="2"/>
<line x1="762.446" y1="309.671" x2="876.334" y2="300.602" stroke="white" stroke-opacity="0.03" stroke-width="2"/>
<line x1="961.75" y1="293.801" x2="1075.64" y2="284.733" stroke="white" stroke-opacity="0.03" stroke-width="2"/>
<line x1="1161.05" y1="277.932" x2="1274.94" y2="268.864" stroke="white" stroke-opacity="0.03" stroke-width="2"/>
<line x1="1360.36" y1="262.063" x2="1474.25" y2="252.995" stroke="white" stroke-opacity="0.03" stroke-width="2"/>
<line x1="-70.9206" y1="406.688" x2="498.52" y2="361.347" stroke="white" stroke-opacity="0.03" stroke-width="2"/>
<line x1="583.937" y1="354.546" x2="697.825" y2="345.478" stroke="white" stroke-opacity="0.03" stroke-width="2"/>
<line x1="783.241" y1="338.677" x2="897.129" y2="329.609" stroke="white" stroke-opacity="0.03" stroke-width="2"/>
<line x1="982.545" y1="322.808" x2="1096.43" y2="313.74" stroke="white" stroke-opacity="0.03" stroke-width="2"/>
<line x1="1181.85" y1="306.938" x2="1295.74" y2="297.87" stroke="white" stroke-opacity="0.03" stroke-width="2"/>
<line x1="1381.15" y1="291.069" x2="1495.04" y2="282.001" stroke="white" stroke-opacity="0.03" stroke-width="2"/>
<line x1="-50.1252" y1="435.695" x2="519.316" y2="390.354" stroke="white" stroke-opacity="0.03" stroke-width="2"/>
<line x1="604.732" y1="383.553" x2="718.62" y2="374.485" stroke="white" stroke-opacity="0.03" stroke-width="2"/>
<line x1="804.037" y1="367.684" x2="917.925" y2="358.615" stroke="white" stroke-opacity="0.03" stroke-width="2"/>
<line x1="1003.34" y1="351.814" x2="1117.23" y2="342.746" stroke="white" stroke-opacity="0.03" stroke-width="2"/>
<line x1="1202.64" y1="335.945" x2="1316.53" y2="326.877" stroke="white" stroke-opacity="0.03" stroke-width="2"/>
<line x1="1401.95" y1="320.076" x2="1515.84" y2="311.008" stroke="white" stroke-opacity="0.03" stroke-width="2"/>
<line x1="-29.3298" y1="464.701" x2="540.111" y2="419.36" stroke="white" stroke-opacity="0.03" stroke-width="2"/>
<line x1="625.528" y1="412.559" x2="739.416" y2="403.491" stroke="white" stroke-opacity="0.03" stroke-width="2"/>
<line x1="824.832" y1="396.69" x2="938.72" y2="387.622" stroke="white" stroke-opacity="0.03" stroke-width="2"/>
<line x1="1024.14" y1="380.821" x2="1138.02" y2="371.753" stroke="white" stroke-opacity="0.03" stroke-width="2"/>
<line x1="1223.44" y1="364.952" x2="1337.33" y2="355.883" stroke="white" stroke-opacity="0.03" stroke-width="2"/>
<line x1="1422.74" y1="349.082" x2="1536.63" y2="340.014" stroke="white" stroke-opacity="0.03" stroke-width="2"/>
<line x1="-8.53434" y1="493.708" x2="560.907" y2="448.367" stroke="white" stroke-opacity="0.03" stroke-width="2"/>
<line x1="646.323" y1="441.566" x2="760.211" y2="432.498" stroke="white" stroke-opacity="0.03" stroke-width="2"/>
<line x1="845.627" y1="425.696" x2="959.515" y2="416.628" stroke="white" stroke-opacity="0.03" stroke-width="2"/>
<line x1="1044.93" y1="409.827" x2="1158.82" y2="400.759" stroke="white" stroke-opacity="0.03" stroke-width="2"/>
<line x1="1244.24" y1="393.958" x2="1358.12" y2="384.89" stroke="white" stroke-opacity="0.03" stroke-width="2"/>
<line x1="12.2611" y1="522.714" x2="581.702" y2="477.373" stroke="white" stroke-opacity="0.03" stroke-width="2"/>
<line x1="667.118" y1="470.572" x2="781.006" y2="461.504" stroke="white" stroke-opacity="0.03" stroke-width="2"/>
<line x1="866.423" y1="454.703" x2="980.311" y2="445.635" stroke="white" stroke-opacity="0.03" stroke-width="2"/>
<line x1="1065.73" y1="438.834" x2="1179.61" y2="429.766" stroke="white" stroke-opacity="0.03" stroke-width="2"/>
<line x1="1265.03" y1="422.964" x2="1378.92" y2="413.896" stroke="white" stroke-opacity="0.03" stroke-width="2"/>
<line x1="33.0565" y1="551.721" x2="602.497" y2="506.38" stroke="white" stroke-opacity="0.03" stroke-width="2"/>
<line x1="687.914" y1="499.579" x2="801.802" y2="490.511" stroke="white" stroke-opacity="0.03" stroke-width="2"/>
<line x1="887.218" y1="483.709" x2="1001.11" y2="474.641" stroke="white" stroke-opacity="0.03" stroke-width="2"/>
<line x1="1086.52" y1="467.84" x2="1200.41" y2="458.772" stroke="white" stroke-opacity="0.03" stroke-width="2"/>
<line x1="1285.83" y1="451.971" x2="1399.71" y2="442.903" stroke="white" stroke-opacity="0.03" stroke-width="2"/>
<line x1="53.8519" y1="580.727" x2="623.293" y2="535.386" stroke="white" stroke-opacity="0.03" stroke-width="2"/>
<line x1="708.709" y1="528.585" x2="822.597" y2="519.517" stroke="white" stroke-opacity="0.03" stroke-width="2"/>
<line x1="908.014" y1="512.716" x2="1021.9" y2="503.648" stroke="white" stroke-opacity="0.03" stroke-width="2"/>
<line x1="1107.32" y1="496.847" x2="1221.21" y2="487.779" stroke="white" stroke-opacity="0.03" stroke-width="2"/>
<line x1="1306.62" y1="480.978" x2="1420.51" y2="471.909" stroke="white" stroke-opacity="0.03" stroke-width="2"/>
</svg>
