<svg width="267" height="82" viewBox="0 0 267 82" fill="none" xmlns="http://www.w3.org/2000/svg">
<g clip-path="url(#clip0_189_1171)">
<path d="M34.6111 12.1785C34.6111 12.1785 22.0287 23.2825 25.079 38.0878L16.3094 46.6008C16.3094 46.6008 12.1152 22.9123 34.6111 12.1785Z" fill="#192C51"/>
<path d="M82.3999 41.9057C82.3999 41.9057 78.0701 25.9425 63.1352 21.727L59.4105 10.2435C59.4105 10.2435 82.9892 17.5792 82.3999 41.9057Z" fill="#192C51"/>
<path d="M31.1795 67.1888C31.1795 67.1888 47.278 72.5057 59.1495 62.7509L71.0673 66.0821C71.0673 66.0821 51.7408 81.1068 31.1795 67.1888Z" fill="#192C51"/>
<path d="M31.5608 42.8994C46.4309 61.4062 59.3947 45.8606 58.6321 46.9708C58.2508 51.7827 46.8122 71.3998 21.2661 52.8929L31.5608 42.8994Z" fill="url(#paint0_linear_189_1171)"/>
<path d="M55.7443 25.0836C31.966 29.3332 40.1771 47.6771 39.5153 46.5076C35.2956 43.9558 22.6601 25.0434 51.3718 11.603L55.7443 25.0836Z" fill="url(#paint1_linear_189_1171)"/>
<path d="M60.3511 54.9161C69.8406 33.3287 49.5535 29.837 50.9233 29.9476C55.4459 27.9434 78.6656 28.1695 74.3415 58.8267L60.3511 54.9161Z" fill="url(#paint2_linear_189_1171)"/>
</g>
<path d="M109.981 35.2861C108.393 35.2861 107.16 35.8827 106.28 37.0758C105.411 38.2791 104.976 39.9474 104.976 42.0809C104.976 46.5298 106.644 48.7543 109.981 48.7543C111.396 48.7543 113.095 48.4055 115.077 47.7078V51.2568C113.449 51.9343 111.619 52.273 109.586 52.273C106.685 52.273 104.465 51.3933 102.928 49.634C101.391 47.8645 100.623 45.3367 100.623 42.0506C100.593 38.9363 101.432 36.4338 103.141 34.543C104.859 32.6421 107.14 31.7118 109.981 31.7523C111.922 31.7523 113.874 32.2224 115.835 33.1628L114.47 36.6057C112.62 35.726 111.123 35.2861 109.981 35.2861ZM127.403 35.2558C125.725 35.2558 124.456 35.822 123.597 36.9545C122.747 38.087 122.323 39.7654 122.323 41.9899C122.323 46.4793 124.006 48.724 127.373 48.724C130.75 48.724 132.439 46.4793 132.439 41.9899C132.439 37.5005 130.76 35.2558 127.403 35.2558ZM120.336 34.361C121.994 32.6117 124.355 31.7371 127.419 31.7371C130.482 31.7371 132.823 32.6218 134.441 34.3913C136.069 36.1608 136.883 38.6987 136.883 42.0051C136.883 45.3114 136.064 47.8493 134.426 49.6188C132.788 51.3883 130.437 52.273 127.373 52.273C124.32 52.273 121.974 51.3883 120.336 49.6188C118.698 47.8493 117.879 45.3013 117.879 41.9747C117.879 38.6481 118.698 36.1102 120.336 34.361ZM149.64 35.2558C147.961 35.2558 146.692 35.822 145.833 36.9545C144.984 38.087 144.559 39.7654 144.559 41.9899C144.559 46.4793 146.242 48.724 149.609 48.724C152.987 48.724 154.675 46.4793 154.675 41.9899C154.675 37.5005 152.997 35.2558 149.64 35.2558ZM142.572 34.361C144.23 32.6117 146.591 31.7371 149.655 31.7371C152.719 31.7371 155.059 32.6218 156.677 34.3913C158.305 36.1608 159.119 38.6987 159.119 42.0051C159.119 45.3114 158.3 47.8493 156.662 49.6188C155.024 51.3883 152.673 52.273 149.609 52.273C146.556 52.273 144.21 51.3883 142.572 49.6188C140.934 47.8493 140.115 45.3013 140.115 41.9747C140.115 38.6481 140.934 36.1102 142.572 34.361ZM175.562 52H163.246V32.0404H167.478V48.5116H175.562V52ZM204.794 32.0404V52H199.409L190.734 36.909H190.613C190.784 39.639 190.87 41.5399 190.87 42.6117V52H187.094V32.0404H192.417L201.093 46.9949H201.184C201.052 44.4975 200.987 42.6623 200.987 41.4894V32.0404H204.794ZM214.06 52H209.828V32.0404H214.06V52ZM227.549 35.2861C225.962 35.2861 224.728 35.8827 223.848 37.0758C222.979 38.2791 222.544 39.9474 222.544 42.0809C222.544 46.5298 224.212 48.7543 227.549 48.7543C228.965 48.7543 230.663 48.4055 232.645 47.7078V51.2568C231.017 51.9343 229.187 52.273 227.155 52.273C224.253 52.273 222.033 51.3933 220.497 49.634C218.96 47.8645 218.191 45.3367 218.191 42.0506C218.161 38.9363 219 36.4338 220.709 34.543C222.428 32.6421 224.708 31.7118 227.549 31.7523C229.491 31.7523 231.442 32.2224 233.404 33.1628L232.039 36.6057C230.188 35.726 228.692 35.2861 227.549 35.2861ZM248.38 48.5116V52H236.899V32.0404H248.38V35.5137H241.13V39.8969H247.879V43.3549H241.13V48.5116H248.38Z" fill="black"/>
<defs>
<linearGradient id="paint0_linear_189_1171" x1="59" y1="47.5" x2="24" y2="49.5" gradientUnits="userSpaceOnUse">
<stop stop-color="#7B85BC"/>
<stop offset="1" stop-color="#192C51"/>
</linearGradient>
<linearGradient id="paint1_linear_189_1171" x1="53" y1="18" x2="39.351" y2="44.6679" gradientUnits="userSpaceOnUse">
<stop stop-color="#192C51"/>
<stop offset="1" stop-color="#7B85BC"/>
</linearGradient>
<linearGradient id="paint2_linear_189_1171" x1="52.5" y1="30" x2="67.1571" y2="56.1315" gradientUnits="userSpaceOnUse">
<stop stop-color="#7B85BC"/>
<stop offset="1" stop-color="#192C51"/>
</linearGradient>
<clipPath id="clip0_189_1171">
<rect width="67" height="66" fill="white" transform="translate(16 8)"/>
</clipPath>
</defs>
</svg>
